<?xml version="1.0" encoding="utf-8"?>
<!-- Generator: Adobe Illustrator 28.1.0, SVG Export Plug-In . SVG Version: 6.00 Build 0)  -->
<svg version="1.1" id="Camada_1" xmlns="http://www.w3.org/2000/svg" xmlns:xlink="http://www.w3.org/1999/xlink" x="0px" y="0px"
	 viewBox="0 0 42.1 49.6" style="enable-background:new 0 0 42.1 49.6;" xml:space="preserve">
<style type="text/css">
	.st0{display:none;}
	.st1{display:inline;}
	.st8{fill:#AED8E8;}
	.st9{fill:#C9F0FF;}
	.st10{fill:#B9FFC5;}
	.st11{fill:#FFFFFF;}
	.st12{fill:#9DD5EA;}
</style>
<image style="display:none;overflow:visible;" width="72" height="64" xlink:href="8D4EA3A5.jpg"  transform="matrix(1 0 0 1 40.14 -7.61)">
</image>
<g>
	<path class="st8" d="M41.1,5.8c-0.2,0-14.9-0.5-19.3-5.1L21,0l-0.7,0.8C15.9,5.3,1.1,5.8,1,5.8l-1,0v18.5
		c0,11.8,19.7,24.3,20.5,24.8l0.5,0.3l0.5-0.3c0.8-0.5,20.5-13,20.5-24.8V5.9L41.1,5.8z M41.1,24.4c0,11.4-20,24-20,24
		S1,35.8,1,24.4V6.8c0,0,15.3-0.5,20-5.4c4.8,5,20,5.4,20,5.4V24.4z"/>
	<path class="st9" d="M21,1.4c-4.8,5-20,5.4-20,5.4v17.5c0,11.4,20,24,20,24s20-12.6,20-24V6.8C41.1,6.8,25.8,6.4,21,1.4z
		 M37.3,24.5C37.3,33.8,21,44,21,44S4.8,33.8,4.8,24.5V10.2c0,0,12.4-0.4,16.3-4.4c3.9,4,16.3,4.4,16.3,4.4V24.5z"/>
	<path class="st10" d="M21,5.8c-3.8,4-16.3,4.4-16.3,4.4v14.3C4.8,33.8,21,44,21,44s16.3-10.2,16.3-19.5V10.2
		C37.3,10.2,24.9,9.9,21,5.8z M36.6,24.5c0,8-13.1,17-15.5,18.6C18.6,41.5,5.5,32.4,5.5,24.5V11c2.6-0.1,11.6-0.9,15.5-4.1
		c3.9,3.2,12.9,3.9,15.5,4.1V24.5z"/>
	<path class="st11" d="M21,6.9C17.2,10.1,8.2,10.8,5.5,11v13.5c0,8,13.1,17,15.5,18.6c2.5-1.6,15.5-10.7,15.5-18.6V11
		C33.9,10.8,24.9,10.1,21,6.9z M30.4,26.3H24v6.1h-5.8v-6.1h-6.4v-5.5h6.4v-6.1H24v6.1h6.4V26.3z"/>
	<polygon class="st12" points="30.4,20.8 30.4,26.3 24,26.3 24,32.4 18.3,32.4 18.3,26.3 11.9,26.3 11.9,20.8 18.3,20.8 18.3,14.7 
		24,14.7 24,20.8 	"/>
</g>
</svg>
